<svg width="94" height="96" viewBox="0 0 94 96" fill="none" xmlns="http://www.w3.org/2000/svg">
<path d="M30.2998 87.9976L34.2827 89.3813C35.4545 89.7802 36.645 90.1106 37.8543 90.3724C39.0635 90.6466 40.2851 90.8399 41.5193 90.952C42.7534 91.0767 43.9876 91.1266 45.2217 91.1016C46.4559 91.0767 47.69 90.977 48.9242 90.8024L73.5697 87.3805H79.4038V64.1188L78.8615 63.857C69.0258 58.0041 63.7152 57.6862 54.4404 61.744H41.0892C37.499 61.744 34.5819 64.661 34.5819 68.2513C34.5819 70.0464 35.3112 71.6732 36.4892 72.8513C37.6673 74.0293 39.2941 74.7586 41.0892 74.7586H54.4404V74.7773H33.3852L10.7966 68.2887C7.63642 67.3911 4.30796 69.1488 3.29821 72.2716C3.24835 72.4212 3.20471 72.577 3.16732 72.7391C3.12992 72.9011 3.09875 73.0569 3.07382 73.2065C3.04889 73.3686 3.03019 73.5307 3.01772 73.6927C3.00526 73.8548 2.99902 74.0168 2.99902 74.1789C2.99902 76.722 4.58845 79.0781 7.11284 79.9569L13.0218 82.0138L30.2998 87.9976Z" stroke="white" stroke-width="3" stroke-linecap="round" stroke-linejoin="round"/>
<path d="M91.5223 82.1446V93.9999H79.4053V64.1187H91.5223V82.1446Z" stroke="white" stroke-width="3" stroke-linecap="round" stroke-linejoin="round"/>
<path d="M2.5137 41.0067C2.40151 41.5303 2.30801 42.0538 2.23321 42.5774C2.15842 43.1135 2.08985 43.6495 2.02752 44.1856C1.97766 44.7216 1.94026 45.2576 1.91533 45.7937C1.8904 46.3297 1.87793 46.8658 1.87793 47.4018C1.87793 55.2368 4.64541 62.4359 9.2454 68.0644C9.37006 68.0644 9.50095 68.0706 9.63808 68.0831C9.76274 68.0955 9.89364 68.108 10.0308 68.1205C10.1554 68.1454 10.2863 68.1703 10.4234 68.1953C10.5481 68.2202 10.6728 68.2514 10.7974 68.2888L33.386 74.7774H52.3657C52.3781 74.7774 52.3844 74.7711 52.3844 74.7587H41.0901C39.2949 74.7587 37.6681 74.0294 36.4901 72.8514C35.312 71.6733 34.5828 70.0465 34.5828 68.2514C34.5828 64.6611 37.4998 61.7441 41.0901 61.7441H54.4413C58.5177 59.9676 61.8274 59.0327 65.0811 59.0327C66.4648 55.405 67.2128 51.4969 67.2128 47.4018C67.2128 29.3571 52.5901 14.7344 34.5454 14.7344C24.7096 14.7344 15.8836 19.0726 9.88117 25.9726" stroke="white" stroke-width="3" stroke-linecap="round" stroke-linejoin="round"/>
<path d="M34.5449 7.14227V2" stroke="white" stroke-width="3" stroke-linecap="round" stroke-linejoin="round"/>
<path d="M58.125 12.7333L61.7526 8.32031" stroke="white" stroke-width="3" stroke-linecap="round" stroke-linejoin="round"/>
<path d="M12.5358 12.7333L8.9082 8.32031" stroke="white" stroke-width="3" stroke-linecap="round" stroke-linejoin="round"/>
<path d="M55.3019 33.3398L35.6865 52.9553" stroke="white" stroke-width="3" stroke-linecap="round" stroke-linejoin="round"/>
<path d="M38.2848 32.6479C40.2108 32.6479 41.7816 34.2187 41.7816 36.1447C41.7816 38.0707 40.2108 39.6414 38.2848 39.6414C36.3588 39.6414 34.7881 38.0707 34.7881 36.1447C34.7881 34.2187 36.3588 32.6479 38.2848 32.6479Z" stroke="white" stroke-width="3" stroke-linecap="round" stroke-linejoin="round"/>
<path d="M52.5905 46.9531C54.5165 46.9531 56.0872 48.5239 56.0872 50.4499C56.0872 52.3946 54.5165 53.9466 52.5905 53.9466C50.6645 53.9466 49.0938 52.3946 49.0938 50.4499C49.0938 48.5239 50.6645 46.9531 52.5905 46.9531Z" stroke="white" stroke-width="3" stroke-linecap="round" stroke-linejoin="round"/>
<path d="M21.3631 52.9551H18.8574C16.0712 52.9551 13.8086 50.6925 13.8086 47.9063V37.3413C13.8086 34.5551 16.0712 32.2925 18.8574 32.2925H21.3631C24.1679 32.2925 26.4305 34.5551 26.4305 37.3413V47.9063C26.4305 50.6925 24.1679 52.9551 21.3631 52.9551Z" stroke="white" stroke-width="3" stroke-linecap="round" stroke-linejoin="round"/>
</svg>
